<svg xmlns="http://www.w3.org/2000/svg" width="1514" height="420" viewBox="0 0 1514 420" fill="none"><path fill-rule="evenodd" clip-rule="evenodd" d="M210 420C325.98 420 420 325.98 420 210C420 94.0202 325.98 0 210 0C94.0202 0 0 94.0202 0 210C0 325.98 94.0202 420 210 420Z" fill="#0455BF"></path><path fill-rule="evenodd" clip-rule="evenodd" d="M210.001 349.531C287.061 349.531 349.531 287.061 349.531 210.001C349.531 132.94 287.061 70.4707 210.001 70.4707C132.941 70.4707 70.4707 132.94 70.4707 210.001C70.4707 287.061 132.941 349.531 210.001 349.531Z" fill="#10D960"></path><path fill-rule="evenodd" clip-rule="evenodd" d="M55.8135 298.793C55.8135 302.002 61.4486 303.609 64.7448 301.341L194.32 212.098C196.361 210.692 196.361 208.412 194.32 207.004L64.7448 117.763C61.4486 115.493 55.8135 117.101 55.8135 120.311V298.793Z" fill="#FFCB2D"></path><path fill-rule="evenodd" clip-rule="evenodd" d="M57.4871 111.53C60.5655 110.652 64.6278 110.801 67.9562 113.093L197.531 202.334C199.731 203.851 201.514 206.37 201.514 209.547C201.514 212.725 199.733 215.242 197.531 216.758L67.9563 306.001C64.6286 308.291 60.5656 308.441 57.4878 307.564C54.7346 306.778 50.1475 304.2 50.1475 298.788V120.306C50.1475 114.896 54.7333 112.316 57.4871 111.53ZM60.4671 122.471C60.467 122.471 60.471 122.469 60.4794 122.465ZM61.4764 122.409C61.5158 122.42 61.5377 122.43 61.5446 122.433L188.03 209.546L61.5464 296.66C61.5394 296.663 61.5168 296.673 61.4764 296.685V122.409ZM191.105 207.428C191.105 207.429 191.106 207.428 191.105 207.428Z" fill="#CA9D00"></path><path fill-rule="evenodd" clip-rule="evenodd" d="M460 137.962V107.759H616.672V137.962H554.793V317.946H521.875V137.962H460Z" fill="#1F1F1F"></path><path fill-rule="evenodd" clip-rule="evenodd" d="M709.335 234.971C706.595 213.006 690.437 199.891 668.796 199.891C646.544 199.891 629.474 213.308 626.734 234.971H709.335ZM739.824 257.845H626.74C629.48 279.81 647.16 293.541 670.324 293.541C686.481 293.541 701.719 286.215 709.035 273.096L734.641 284.386C722.449 308.485 697.148 320.994 668.801 320.994C648.076 320.994 630.701 313.978 616.68 300.251C602.66 286.521 595.649 268.524 595.649 246.254C595.649 223.983 602.66 206.293 616.68 192.868C630.701 179.141 648.076 172.431 668.801 172.431C689.531 172.431 706.6 179.141 720.01 192.868C733.42 206.293 740.125 223.983 740.125 246.254C740.125 252.052 740.125 255.71 739.824 257.845V257.845Z" fill="#1F1F1F"></path><path fill-rule="evenodd" clip-rule="evenodd" d="M789.496 317.949H758.097V175.485H789.496V208.125C796.502 184.335 809.309 172.438 828.512 172.438C839.789 172.438 848.326 174.267 853.813 177.93L848.631 206.907C842.228 203.553 835.217 202.026 827.593 202.026C801.99 202.026 789.496 226.736 789.496 266.698V317.949Z" fill="#1F1F1F"></path><path fill-rule="evenodd" clip-rule="evenodd" d="M895.866 317.949H864.475V175.485H895.866V208.125C902.876 184.335 915.68 172.438 934.883 172.438C946.163 172.438 954.696 174.267 960.184 177.93L955.001 206.907C948.602 203.553 941.587 202.026 933.967 202.026C908.364 202.026 895.866 226.736 895.866 266.698V317.949Z" fill="#1F1F1F"></path><path fill-rule="evenodd" clip-rule="evenodd" d="M1065.03 214.836C1056.19 206.904 1046.13 202.939 1034.55 202.939C1022.36 202.939 1011.99 206.904 1003.46 215.142C995.229 223.075 990.963 233.448 990.963 246.258C990.963 259.072 995.229 269.746 1003.46 277.985C1011.99 286.219 1022.36 290.493 1034.55 290.493C1058.94 290.493 1078.44 273.1 1078.44 246.258C1078.44 233.138 1073.87 222.464 1065.03 214.836V214.836ZM1078.76 317.942V297.505C1069.92 312.144 1049.5 320.994 1030.91 320.994C1011.1 320.994 994.026 313.978 979.7 300.251C965.679 286.521 958.669 268.524 958.669 246.559C958.669 224.595 965.679 206.9 979.7 193.173C994.026 179.447 1011.1 172.431 1030.91 172.431C1049.5 172.431 1069.31 180.665 1078.76 195.614V175.478H1109.85V317.942H1078.76Z" fill="#1F1F1F"></path><path fill-rule="evenodd" clip-rule="evenodd" d="M1178.72 300.556C1178.72 312.453 1169.27 320.997 1157.08 320.997C1145.19 320.997 1135.75 312.453 1135.75 300.556C1135.75 288.659 1145.19 279.813 1157.08 279.813C1169.27 279.813 1178.72 288.659 1178.72 300.556" fill="#1F1F1F"></path><path fill-rule="evenodd" clip-rule="evenodd" d="M1300.95 214.837C1292.11 206.904 1282.05 202.94 1270.46 202.94C1246.08 202.94 1227.79 220.634 1227.79 246.258C1227.79 259.377 1231.76 270.052 1239.99 278.287C1248.21 286.525 1258.58 290.493 1270.46 290.493C1294.85 290.493 1314.06 273.1 1314.06 246.258C1314.06 233.139 1309.79 222.464 1300.95 214.837V214.837ZM1314.66 317.946V297.203C1306.13 312.148 1286.93 320.997 1266.5 320.997C1246.69 320.997 1229.93 314.287 1216.21 300.556C1202.49 286.83 1195.48 268.833 1195.48 246.868C1195.48 224.598 1202.19 206.903 1215.9 193.177C1229.62 179.45 1246.69 172.434 1266.5 172.434C1287.23 172.434 1306.13 180.974 1314.66 195.923V98H1345.75V317.946H1314.66Z" fill="#1F1F1F"></path><path fill-rule="evenodd" clip-rule="evenodd" d="M1470.12 278.287C1478.34 270.053 1482.61 259.374 1482.61 246.259C1482.61 220.635 1463.71 203.246 1439.33 203.246C1427.44 203.246 1417.08 207.21 1408.85 215.143C1400.62 223.075 1396.35 233.445 1396.35 246.259C1396.35 259.374 1400.62 270.053 1408.85 278.287C1417.08 286.525 1427.44 290.49 1439.33 290.49C1451.52 290.49 1461.89 286.525 1470.12 278.287M1492.36 192.875C1506.68 206.605 1514 224.296 1514 246.261C1514 268.222 1506.68 286.222 1492.06 300.258C1477.73 313.984 1460.05 321 1439.32 321C1418.6 321 1400.92 313.984 1386.59 300.258C1372.27 286.222 1365.25 268.222 1365.25 246.261C1365.25 224.296 1372.27 206.605 1386.59 192.875C1400.92 179.148 1418.6 172.438 1439.32 172.438C1460.36 172.438 1478.03 179.148 1492.36 192.875" fill="#1F1F1F"></path></svg>